<svg fill="#fff" id="Layer_1" enable-background="new 0 0 512 512" height="512" viewBox="0 0 512 512" width="512" xmlns="http://www.w3.org/2000/svg"><circle cx="386.646" cy="38.467" r="7.5"/><path d="m125.25 46h103c4.143 0 7.5-3.358 7.5-7.5s-3.357-7.5-7.5-7.5h-103c-4.143 0-7.5 3.358-7.5 7.5s3.357 7.5 7.5 7.5z"/><path d="m387.25 113.5c0-4.142-3.357-7.5-7.5-7.5h-247c-4.143 0-7.5 3.358-7.5 7.5v89c0 4.142 3.357 7.5 7.5 7.5h247c4.143 0 7.5-3.358 7.5-7.5zm-15 81.5h-232v-74h232z"/><path d="m379.25 241h-247c-9.675 0-9.675 15 0 15h247c9.674 0 9.674-15 0-15z"/><path d="m379.25 283h-247c-9.675 0-9.675 15 0 15h247c9.674 0 9.674-15 0-15z"/><path d="m466.183 261.002-37.934-46.89v-30.612c0-9.674-15-9.674-15 0v126.312l-28.357 17.759c-1.375-1.573-3.39-2.571-5.643-2.571h-247c-2.204 0-4.179.956-5.551 2.469l-28.448-17.688v-232.781h315v60.5c0 9.674 15 9.674 15 0v-104.246c0-18.336-14.811-33.254-33.015-33.254h-278.487c-18.471 0-33.498 14.918-33.498 33.254v181.477l-37.434 46.271c-9.173 11.339-14.063 25.177-14.063 39.746v99.752c0 9.674 15 9.674 15 0v-99.752c0-1.723.104-3.439.289-5.144l205.357 127.681c2.41 1.498 5.536 1.494 7.94-.013l204.572-128.115c.218 1.851.337 3.717.337 5.591v164.185c0 17.682-14.385 32.066-32.066 32.066h-354.724c-17.482 0-31.706-14.224-31.706-31.707v-18.792c0-9.674-15-9.674-15 0v18.793c0 25.754 20.952 46.707 46.706 46.707h354.723c25.952 0 47.066-21.114 47.066-47.066v-164.185c.001-14.42-4.995-28.535-14.064-39.747zm-101.137 78.998-43.408 27.185c-.528-.118-1.075-.185-1.638-.185h-128c-.508 0-1.004.052-1.483.148l-43.665-27.148zm-248.298-325h278.487c9.934 0 18.015 8.189 18.015 18.254v28.746h-315v-28.746c0-10.065 8.297-18.254 18.498-18.254zm-59.27 255.437 25.771-31.856v61.874l-32.038-19.92c1.659-3.594 3.755-6.993 6.267-10.098zm198.865 137.639-41.94-26.076h83.578zm171.907-107.658v-62.456l26.271 32.475c2.423 2.995 4.455 6.265 6.085 9.718z"/></svg>
