<svg fill="#fff" xmlns="http://www.w3.org/2000/svg" xmlns:xlink="http://www.w3.org/1999/xlink" viewBox="0 0 100 100" version="1.1" x="0px" y="0px"><g stroke="#fff" stroke-width="1"><path d="M10.409713,11 C8.83056556,11 8.40466294,11.0822456 7.97268232,11.3132714 C7.68067292,11.4694397 7.46943969,11.6806729 7.31327135,11.9726823 C7.08224559,12.4046629 7,12.8305656 7,14.409713 L7,86.590287 C7,88.1694344 7.08224559,88.5953371 7.31327135,89.0273177 C7.46943969,89.3193271 7.68067292,89.5305603 7.97268232,89.6867286 C8.40466294,89.9177544 8.83056556,90 10.409713,90 L65.590287,90 C67.1694344,90 67.5953371,89.9177544 68.0273177,89.6867286 C68.3193271,89.5305603 68.5305603,89.3193271 68.6867286,89.0273177 C68.9177544,88.5953371 69,88.1694344 69,86.590287 L69,14.409713 C69,12.8305656 68.9177544,12.4046629 68.6867286,11.9726823 C68.5305603,11.6806729 68.3193271,11.4694397 68.0273177,11.3132714 C67.5953371,11.0822456 67.1694344,11 65.590287,11 L10.409713,11 Z M72,38.2 L69,41.2 L69,59.57 L72,56.57 L72,86.590287 C72,88.8190838 71.767936,89.6272994 71.3321682,90.4421143 C70.8964005,91.2569291 70.2569291,91.8964005 69.4421143,92.3321682 C68.6272994,92.767936 67.8190838,93 65.590287,93 L10.409713,93 C8.18091615,93 7.37270056,92.767936 6.55788574,92.3321682 C5.74307093,91.8964005 5.10359949,91.2569291 4.66783176,90.4421143 C4.23206403,89.6272994 4,88.8190838 4,86.590287 L4,14.409713 C4,12.1809162 4.23206403,11.3727006 4.66783176,10.5578857 C5.10359949,9.74307093 5.74307093,9.10359949 6.55788574,8.66783176 C7.37270056,8.23206403 8.18091615,8 10.409713,8 L65.590287,8 C67.8190838,8 68.6272994,8.23206403 69.4421143,8.66783176 C70.2569291,9.10359949 70.8964005,9.74307093 71.3321682,10.5578857 C71.767936,11.3727006 72,12.1809162 72,14.409713 L72,38.2 Z" /><path d="M17.9999802,27.7839589 L16.2120902,28.768406 C15.9701931,28.9015992 15.6661224,28.8134774 15.5329292,28.5715804 C15.4789195,28.4734915 15.4593989,28.360112 15.477495,28.2496086 L15.824803,26.1287852 L14.3326705,24.6054601 C14.1394385,24.4081887 14.1427131,24.0916231 14.3399846,23.8983912 C14.4148922,23.8250174 14.5109717,23.7770504 14.6146345,23.7612743 L16.6556467,23.4506577 L17.5476813,21.5576323 C17.6653914,21.3078345 17.9633154,21.2007563 18.2131132,21.3184664 C18.3181978,21.3679845 18.402761,21.4525477 18.4522791,21.5576323 L19.3443137,23.4506577 L21.3853259,23.7612743 C21.6583249,23.8028213 21.8459538,24.0578112 21.8044068,24.3308102 C21.7886306,24.434473 21.7406636,24.5305525 21.6672899,24.6054601 L20.1751574,26.1287852 L20.5224654,28.2496086 C20.5670923,28.522121 20.3823545,28.7792133 20.109842,28.8238402 C19.9993386,28.8419363 19.8859591,28.8224157 19.7878702,28.768406 L17.9999802,27.7839589 Z" /><path d="M27.9999802,27.7839589 L26.2120902,28.768406 C25.9701931,28.9015992 25.6661224,28.8134774 25.5329292,28.5715804 C25.4789195,28.4734915 25.4593989,28.360112 25.477495,28.2496086 L25.824803,26.1287852 L24.3326705,24.6054601 C24.1394385,24.4081887 24.1427131,24.0916231 24.3399846,23.8983912 C24.4148922,23.8250174 24.5109717,23.7770504 24.6146345,23.7612743 L26.6556467,23.4506577 L27.5476813,21.5576323 C27.6653914,21.3078345 27.9633154,21.2007563 28.2131132,21.3184664 C28.3181978,21.3679845 28.402761,21.4525477 28.4522791,21.5576323 L29.3443137,23.4506577 L31.3853259,23.7612743 C31.6583249,23.8028213 31.8459538,24.0578112 31.8044068,24.3308102 C31.7886306,24.434473 31.7406636,24.5305525 31.6672899,24.6054601 L30.1751574,26.1287852 L30.5224654,28.2496086 C30.5670923,28.522121 30.3823545,28.7792133 30.109842,28.8238402 C29.9993386,28.8419363 29.8859591,28.8224157 29.7878702,28.768406 L27.9999802,27.7839589 Z" /><path d="M37.9999802,27.7839589 L36.2120902,28.768406 C35.9701931,28.9015992 35.6661224,28.8134774 35.5329292,28.5715804 C35.4789195,28.4734915 35.4593989,28.360112 35.477495,28.2496086 L35.824803,26.1287852 L34.3326705,24.6054601 C34.1394385,24.4081887 34.1427131,24.0916231 34.3399846,23.8983912 C34.4148922,23.8250174 34.5109717,23.7770504 34.6146345,23.7612743 L36.6556467,23.4506577 L37.5476813,21.5576323 C37.6653914,21.3078345 37.9633154,21.2007563 38.2131132,21.3184664 C38.3181978,21.3679845 38.402761,21.4525477 38.4522791,21.5576323 L39.3443137,23.4506577 L41.3853259,23.7612743 C41.6583249,23.8028213 41.8459538,24.0578112 41.8044068,24.3308102 C41.7886306,24.434473 41.7406636,24.5305525 41.6672899,24.6054601 L40.1751574,26.1287852 L40.5224654,28.2496086 C40.5670923,28.522121 40.3823545,28.7792133 40.109842,28.8238402 C39.9993386,28.8419363 39.8859591,28.8224157 39.7878702,28.768406 L37.9999802,27.7839589 Z" /><path d="M47.9999802,27.7839589 L46.2120902,28.768406 C45.9701931,28.9015992 45.6661224,28.8134774 45.5329292,28.5715804 C45.4789195,28.4734915 45.4593989,28.360112 45.477495,28.2496086 L45.824803,26.1287852 L44.3326705,24.6054601 C44.1394385,24.4081887 44.1427131,24.0916231 44.3399846,23.8983912 C44.4148922,23.8250174 44.5109717,23.7770504 44.6146345,23.7612743 L46.6556467,23.4506577 L47.5476813,21.5576323 C47.6653914,21.3078345 47.9633154,21.2007563 48.2131132,21.3184664 C48.3181978,21.3679845 48.402761,21.4525477 48.4522791,21.5576323 L49.3443137,23.4506577 L51.3853259,23.7612743 C51.6583249,23.8028213 51.8459538,24.0578112 51.8044068,24.3308102 C51.7886306,24.434473 51.7406636,24.5305525 51.6672899,24.6054601 L50.1751574,26.1287852 L50.5224654,28.2496086 C50.5670923,28.522121 50.3823545,28.7792133 50.109842,28.8238402 C49.9993386,28.8419363 49.8859591,28.8224157 49.7878702,28.768406 L47.9999802,27.7839589 Z" /><path d="M57.9999802,27.7839589 L56.2120902,28.768406 C55.9701931,28.9015992 55.6661224,28.8134774 55.5329292,28.5715804 C55.4789195,28.4734915 55.4593989,28.360112 55.477495,28.2496086 L55.824803,26.1287852 L54.3326705,24.6054601 C54.1394385,24.4081887 54.1427131,24.0916231 54.3399846,23.8983912 C54.4148922,23.8250174 54.5109717,23.7770504 54.6146345,23.7612743 L56.6556467,23.4506577 L57.5476813,21.5576323 C57.6653914,21.3078345 57.9633154,21.2007563 58.2131132,21.3184664 C58.3181978,21.3679845 58.402761,21.4525477 58.4522791,21.5576323 L59.3443137,23.4506577 L61.3853259,23.7612743 C61.6583249,23.8028213 61.8459538,24.0578112 61.8044068,24.3308102 C61.7886306,24.434473 61.7406636,24.5305525 61.6672899,24.6054601 L60.1751574,26.1287852 L60.5224654,28.2496086 C60.5670923,28.522121 60.3823545,28.7792133 60.109842,28.8238402 C59.9993386,28.8419363 59.8859591,28.8224157 59.7878702,28.768406 L57.9999802,27.7839589 Z" /><rect  x="14" y="39" width="47" height="3"/><rect  x="14" y="50" width="32" height="3"/><rect  x="14" y="61" width="22" height="3"/><rect  x="14" y="72" width="16" height="3"/><path d="M49.3110174,56 L98,56 L98,46 L49.3110174,46 L40,51 L49.3110174,56 Z M48.6472187,59 L37.0339776,52.7888544 C36.1103652,52.2948759 35.7359973,51.0935298 36.1978035,50.1055728 C36.3787267,49.718518 36.6721313,49.404673 37.0339776,49.2111456 L48.6472187,43 L99.1302578,43 C100.162888,43 101,43.8954305 101,45 L101,57 C101,58.1045695 100.162888,59 99.1302578,59 L48.6472187,59 Z"  transform="translate(68.500000, 51.000000) rotate(-45.000000) translate(-68.500000, -51.000000) "/></g></svg>
